<?xml version="1.0" encoding="UTF-8" ?>
<!DOCTYPE svg PUBLIC "-//W3C//DTD SVG 1.1//EN" "http://www.w3.org/Graphics/SVG/1.1/DTD/svg11.dtd">
<svg width="392pt" height="106pt" viewBox="0 0 392 106" version="1.1" xmlns="http://www.w3.org/2000/svg">
<g id="#b5174dff">
<path fill="#b5174d" opacity="1.00" d=" M 17.57 36.60 C 21.28 28.19 29.66 22.77 38.45 20.90 C 38.48 24.50 38.47 28.10 38.47 31.70 C 31.63 34.74 25.78 40.23 23.68 47.59 C 21.40 49.08 20.00 51.43 18.73 53.77 C 18.10 53.92 16.86 54.23 16.23 54.38 C 14.92 48.50 14.81 42.11 17.57 36.60 Z" />
</g>
<g id="#b0b0b0ff">
<path fill="#b0b0b0" opacity="1.00" d=" M 45.23 25.03 C 54.27 25.57 62.52 31.51 66.42 39.59 C 69.08 45.23 69.61 51.74 68.44 57.82 C 66.40 67.78 58.02 75.50 48.16 77.46 C 48.10 73.64 48.11 69.83 48.12 66.02 C 52.80 63.37 57.83 60.56 60.52 55.68 C 63.87 50.16 64.15 42.41 59.72 37.38 C 56.11 33.20 50.45 31.83 45.15 31.57 C 45.18 29.39 45.18 27.21 45.23 25.03 Z" />
</g>
<g id="#010101ff">
<path fill="#010101" opacity="1.00" d=" M 239.26 34.78 C 240.42 34.77 241.58 34.78 242.74 34.79 C 242.75 36.01 242.74 37.24 242.72 38.47 C 241.57 38.48 240.42 38.48 239.28 38.47 C 239.26 37.24 239.25 36.01 239.26 34.78 Z" />
<path fill="#010101" opacity="1.00" d=" M 105.32 35.38 C 109.54 33.30 115.65 35.94 115.91 40.93 C 116.06 46.92 116.16 52.95 115.85 58.94 C 115.15 65.62 104.80 66.90 102.03 61.01 C 100.48 56.86 101.55 52.27 101.24 47.93 C 101.24 43.56 100.32 37.48 105.32 35.38 M 107.33 38.34 C 105.79 38.78 104.70 40.31 104.80 41.92 C 104.69 47.27 104.66 52.64 104.82 58.00 C 104.85 61.12 109.25 62.41 111.32 60.33 C 112.92 59.03 112.37 56.78 112.53 55.00 C 112.41 50.31 112.74 45.61 112.35 40.94 C 111.96 38.71 109.33 37.73 107.33 38.34 Z" />
<path fill="#010101" opacity="1.00" d=" M 173.51 34.77 C 178.42 34.74 183.34 34.75 188.25 34.75 C 188.25 35.62 188.25 37.37 188.25 38.25 C 186.41 38.25 184.58 38.25 182.75 38.25 C 182.75 47.08 182.75 55.92 182.75 64.75 C 181.58 64.75 180.42 64.75 179.25 64.75 C 179.23 55.92 179.29 47.09 179.21 38.26 C 177.31 38.25 175.40 38.25 173.50 38.24 C 173.50 37.38 173.51 35.64 173.51 34.77 Z" />
<path fill="#010101" opacity="1.00" d=" M 226.75 34.75 C 227.62 34.75 229.37 34.75 230.24 34.75 C 230.27 37.16 230.23 39.58 230.25 41.99 C 232.25 41.99 234.25 42.01 236.26 42.00 C 236.25 42.88 236.25 44.62 236.25 45.50 C 234.25 45.49 232.26 45.50 230.26 45.50 C 230.35 49.90 229.96 54.32 230.46 58.70 C 230.96 61.41 234.16 61.14 236.26 61.44 C 236.25 62.59 236.25 63.74 236.24 64.89 C 232.58 65.06 228.21 63.88 227.12 59.88 C 226.29 55.16 226.92 50.31 226.76 45.53 C 225.88 45.51 224.13 45.46 223.25 45.44 C 223.26 44.59 223.27 42.89 223.28 42.05 C 224.15 42.02 225.89 41.98 226.76 41.96 C 226.77 39.56 226.73 37.15 226.75 34.75 Z" />
<path fill="#010101" opacity="1.00" d=" M 284.24 42.05 C 283.69 35.80 292.10 32.39 296.53 36.39 C 299.16 38.34 299.01 41.83 299.10 44.76 C 297.95 44.75 296.80 44.75 295.65 44.75 C 295.48 42.40 295.75 39.08 292.87 38.32 C 289.61 37.16 286.34 40.91 288.17 43.95 C 290.74 47.65 295.15 49.60 297.82 53.24 C 299.39 55.74 299.54 59.25 297.79 61.71 C 295.21 65.67 288.70 65.84 285.79 62.17 C 283.97 60.07 284.31 57.12 284.18 54.55 C 285.32 54.61 286.45 54.60 287.59 54.53 C 287.88 56.62 287.27 59.34 289.36 60.68 C 292.32 62.86 296.79 59.60 295.37 56.07 C 292.50 50.77 284.39 48.85 284.24 42.05 Z" />
<path fill="#010101" opacity="1.00" d=" M 337.51 34.75 C 338.38 34.75 340.12 34.75 340.99 34.74 C 341.02 37.16 340.97 39.58 341.01 42.00 C 343.00 41.99 345.00 42.01 347.00 42.00 C 347.00 42.88 347.00 44.62 347.00 45.50 C 345.00 45.49 343.01 45.50 341.02 45.49 C 341.11 49.98 340.67 54.50 341.26 58.96 C 342.00 61.43 344.96 61.18 347.00 61.45 C 347.00 62.61 346.98 63.77 346.95 64.93 C 343.30 65.03 338.91 63.86 337.86 59.85 C 337.05 55.13 337.67 50.30 337.51 45.54 C 336.34 45.50 335.17 45.47 334.00 45.43 C 334.00 44.59 334.01 42.91 334.01 42.07 C 335.17 42.03 336.34 41.99 337.51 41.95 C 337.52 39.55 337.48 37.15 337.51 34.75 Z" />
<path fill="#010101" opacity="1.00" d=" M 118.83 47.93 C 118.90 43.15 125.13 40.21 128.91 43.12 C 131.99 44.99 131.84 48.88 131.80 52.01 C 131.65 55.58 132.49 59.80 129.74 62.64 C 127.92 64.84 124.84 64.65 122.26 64.90 C 122.24 67.10 122.26 69.30 122.24 71.50 C 121.38 71.50 119.64 71.49 118.77 71.49 C 118.81 63.64 118.60 55.78 118.83 47.93 M 122.35 48.11 C 122.07 52.55 122.30 56.99 122.28 61.43 C 124.14 61.14 126.54 61.52 127.70 59.64 C 128.66 56.90 128.20 53.89 128.29 51.03 C 128.11 49.32 128.63 47.06 126.85 46.02 C 125.34 44.49 122.42 46.10 122.35 48.11 Z" />
<path fill="#010101" opacity="1.00" d=" M 135.08 47.97 C 135.16 44.85 137.90 42.22 140.95 42.00 C 144.06 41.68 147.25 43.95 147.81 47.06 C 148.14 49.44 148.01 51.86 148.02 54.25 C 144.82 54.23 141.62 54.27 138.42 54.26 C 138.64 56.53 137.85 59.52 140.14 60.98 C 141.79 61.84 143.15 60.53 144.47 59.73 C 144.49 58.98 144.52 57.49 144.54 56.74 C 145.47 56.75 147.32 56.76 148.25 56.77 C 147.92 59.18 147.63 61.97 145.40 63.45 C 142.00 66.29 136.17 64.26 135.24 59.94 C 134.77 55.97 134.93 51.95 135.08 47.97 M 138.28 50.73 C 140.43 50.74 142.58 50.74 144.73 50.73 C 144.37 48.78 144.71 45.80 142.06 45.46 C 138.90 44.90 138.31 48.42 138.28 50.73 Z" />
<path fill="#010101" opacity="1.00" d=" M 151.09 47.93 C 151.16 44.81 153.95 42.20 157.00 41.99 C 160.34 41.62 163.91 44.42 163.94 47.87 C 164.15 53.50 163.92 59.14 163.99 64.78 C 162.83 64.77 161.67 64.74 160.52 64.69 C 160.33 58.98 160.81 53.24 160.33 47.55 C 159.86 44.49 154.74 45.00 154.64 47.98 C 154.24 53.56 154.62 59.17 154.49 64.76 C 153.33 64.75 152.18 64.74 151.02 64.71 C 151.08 59.12 150.82 53.52 151.09 47.93 Z" />
<path fill="#010101" opacity="1.00" d=" M 191.44 47.14 C 192.10 42.65 198.12 40.37 201.62 43.27 C 205.17 45.76 204.11 50.55 204.27 54.25 C 201.07 54.23 197.86 54.27 194.66 54.25 C 194.92 56.64 193.99 60.42 197.13 61.17 C 199.76 62.03 200.88 58.79 201.11 56.76 C 201.96 56.76 203.66 56.76 204.51 56.76 C 204.20 59.43 203.68 62.53 201.02 63.87 C 197.30 66.34 191.60 63.55 191.36 59.08 C 191.15 55.11 191.05 51.10 191.44 47.14 M 194.55 50.74 C 196.69 50.74 198.83 50.74 200.97 50.72 C 200.76 49.40 200.73 48.02 200.27 46.75 C 199.51 45.41 197.21 44.93 196.08 46.03 C 194.44 47.02 194.88 49.14 194.55 50.74 Z" />
<path fill="#010101" opacity="1.00" d=" M 207.52 48.99 C 206.64 44.25 212.28 40.39 216.46 42.53 C 219.35 43.59 220.23 46.72 220.55 49.47 C 219.72 49.47 218.04 49.48 217.21 49.48 C 216.59 48.17 216.61 46.14 214.90 45.70 C 212.75 44.48 209.66 47.57 211.40 49.66 C 214.14 52.18 219.24 52.65 219.90 57.00 C 221.18 61.47 216.49 65.93 212.11 64.56 C 208.57 63.79 207.11 60.08 207.02 56.80 C 207.86 56.80 209.55 56.79 210.39 56.78 C 210.80 58.68 211.36 61.83 214.05 61.21 C 216.73 61.26 217.54 57.00 215.14 55.98 C 212.32 54.03 207.71 53.17 207.52 48.99 Z" />
<path fill="#010101" opacity="1.00" d=" M 239.25 41.99 C 240.41 41.99 241.57 42.01 242.73 42.04 C 242.76 49.60 242.76 57.15 242.73 64.70 C 241.57 64.74 240.41 64.76 239.26 64.77 C 239.24 57.18 239.25 49.58 239.25 41.99 Z" />
<path fill="#010101" opacity="1.00" d=" M 246.16 46.22 C 247.94 40.56 256.92 40.72 258.49 46.45 C 259.15 52.52 258.56 58.67 258.75 64.77 C 257.59 64.76 256.43 64.74 255.28 64.70 C 255.08 58.82 255.59 52.92 255.02 47.06 C 253.78 44.53 249.57 45.24 249.37 48.05 C 249.03 53.61 249.37 59.19 249.25 64.75 C 248.38 64.75 246.64 64.75 245.78 64.74 C 245.99 58.58 245.20 52.32 246.16 46.22 Z" />
<path fill="#010101" opacity="1.00" d=" M 265.01 43.05 C 268.76 40.26 274.84 43.21 274.70 47.96 C 274.66 54.18 275.13 60.47 274.41 66.65 C 273.15 71.39 267.64 71.88 263.55 71.55 C 263.53 70.69 263.49 68.97 263.47 68.11 C 266.59 68.13 270.21 68.38 271.77 65.06 C 267.35 65.32 261.81 63.23 261.80 58.03 C 262.01 53.06 260.17 46.38 265.01 43.05 M 265.41 48.13 C 265.09 51.62 265.04 55.17 265.46 58.66 C 266.21 61.18 269.17 60.90 271.23 61.22 C 271.15 56.49 271.55 51.73 271.02 47.02 C 269.64 44.43 265.88 45.48 265.41 48.13 Z" />
<path fill="#010101" opacity="1.00" d=" M 302.02 42.03 C 303.18 42.01 304.33 42.00 305.50 42.00 C 305.66 47.62 305.15 53.28 305.74 58.88 C 306.73 61.17 309.43 60.93 311.50 61.17 C 311.51 54.77 311.50 48.38 311.51 41.99 C 312.37 42.00 314.11 42.02 314.98 42.03 C 314.97 49.37 315.07 56.71 314.98 64.05 C 315.22 67.24 313.10 70.42 309.97 71.21 C 307.93 71.58 305.86 71.53 303.80 71.56 C 303.78 70.70 303.74 68.96 303.72 68.09 C 306.86 68.18 310.38 68.34 312.02 65.08 C 308.17 65.06 303.37 64.05 302.31 59.70 C 301.56 53.85 302.19 47.91 302.02 42.03 Z" />
<path fill="#010101" opacity="1.00" d=" M 318.42 49.84 C 317.00 45.38 321.71 40.81 326.13 42.16 C 329.54 42.81 331.14 46.32 331.30 49.48 C 330.46 49.48 328.79 49.48 327.95 49.48 C 327.26 48.29 327.43 46.35 325.94 45.82 C 323.63 44.32 320.32 47.48 322.18 49.83 C 325.11 52.10 330.08 52.80 330.68 57.15 C 331.90 61.76 326.83 66.16 322.44 64.43 C 319.10 63.47 317.90 59.90 317.74 56.77 C 318.88 56.80 320.03 56.82 321.18 56.83 C 321.63 58.54 321.76 60.92 323.94 61.32 C 326.32 61.61 328.03 59.20 327.06 57.03 C 324.63 54.14 319.30 54.07 318.42 49.84 Z" />
<path fill="#010101" opacity="1.00" d=" M 350.20 47.06 C 350.92 42.51 357.06 40.38 360.52 43.38 C 363.92 45.93 362.84 50.60 363.02 54.25 C 359.82 54.23 356.62 54.27 353.42 54.26 C 353.57 56.66 352.80 60.65 356.09 61.20 C 358.67 61.86 359.57 58.69 359.86 56.76 C 360.71 56.76 362.41 56.76 363.25 56.76 C 362.96 59.41 362.42 62.47 359.82 63.85 C 356.09 66.33 350.36 63.57 350.11 59.07 C 349.89 55.08 349.80 51.04 350.20 47.06 M 353.28 50.73 C 355.43 50.74 357.57 50.74 359.73 50.73 C 359.37 48.80 359.70 45.57 356.91 45.51 C 353.84 44.94 353.33 48.52 353.28 50.73 Z" />
<path fill="#010101" opacity="1.00" d=" M 366.00 46.05 C 367.07 41.97 372.03 41.12 375.33 43.07 C 378.69 41.16 383.84 41.93 384.74 46.23 C 385.37 52.36 384.83 58.55 384.99 64.70 C 384.12 64.72 382.38 64.76 381.52 64.78 C 381.36 58.97 381.75 53.15 381.38 47.35 C 381.37 45.98 379.14 44.65 378.13 45.83 C 376.64 46.61 377.18 48.63 376.98 49.99 C 376.95 54.91 377.04 59.84 376.99 64.76 C 376.18 64.76 374.56 64.75 373.75 64.74 C 373.58 58.96 374.08 53.14 373.54 47.38 C 373.58 44.85 369.62 44.86 369.40 47.24 C 368.97 53.06 369.40 58.92 369.24 64.75 C 368.38 64.75 366.64 64.74 365.77 64.74 C 365.91 58.51 365.38 52.25 366.00 46.05 Z" />
</g>
<g id="#ffffffff">
<path fill="#ffffff" opacity="1.00" d=" M 27.88 46.43 C 28.91 44.06 30.22 41.33 33.07 40.85 C 35.92 39.91 38.64 41.47 40.49 43.54 C 44.10 42.61 47.64 43.91 50.24 46.44 C 55.07 46.77 61.13 50.17 60.52 55.68 C 57.83 60.56 52.80 63.37 48.12 66.02 C 48.11 69.83 48.10 73.64 48.16 77.46 C 58.02 75.50 66.40 67.78 68.44 57.82 C 69.46 59.10 70.47 60.40 71.43 61.73 C 73.71 62.00 76.33 62.07 77.93 63.99 C 80.90 67.04 78.90 72.74 74.86 73.68 C 72.81 73.98 70.63 73.98 68.78 75.06 C 65.98 76.74 62.58 75.90 59.69 74.94 C 55.66 81.99 45.41 82.67 39.40 77.81 C 33.21 79.67 25.78 79.68 20.56 75.37 C 16.86 76.42 12.74 76.47 9.25 74.70 C 6.42 73.15 4.18 69.71 5.32 66.44 C 6.04 63.95 8.41 62.63 10.42 61.31 C 10.24 57.85 12.77 54.79 16.23 54.38 C 16.86 54.23 18.10 53.92 18.73 53.77 C 20.00 51.43 21.40 49.08 23.68 47.59 C 25.05 47.11 26.47 46.78 27.88 46.43 Z" />
</g>
</svg>
