<?xml version="1.0" encoding="UTF-8" ?>
<!DOCTYPE svg PUBLIC "-//W3C//DTD SVG 1.1//EN" "http://www.w3.org/Graphics/SVG/1.1/DTD/svg11.dtd">
<svg width="392pt" height="106pt" viewBox="0 0 392 106" version="1.1" xmlns="http://www.w3.org/2000/svg">
<g id="#b5174dff">
<path fill="#b5174d" opacity="1.00" d=" M 323.81 35.94 C 327.63 27.88 335.76 22.75 344.28 20.89 C 344.29 24.49 344.29 28.08 344.30 31.68 C 337.45 34.78 331.70 40.32 329.47 47.64 C 327.32 49.24 325.89 51.54 324.57 53.82 C 323.96 53.97 322.74 54.27 322.13 54.41 C 320.79 48.27 320.76 41.60 323.81 35.94 Z" />
</g>
<g id="#b0b0b0ff">
<path fill="#b0b0b0" opacity="1.00" d=" M 351.08 25.01 C 357.92 25.56 364.38 28.97 368.69 34.32 C 374.19 40.74 375.70 49.80 374.08 57.94 C 372.68 63.73 369.51 69.16 364.67 72.72 C 361.50 75.14 357.65 76.34 353.93 77.62 C 353.89 73.79 353.88 69.96 353.90 66.14 C 358.48 63.38 363.51 60.62 366.20 55.78 C 369.55 50.25 369.86 42.48 365.44 37.43 C 361.91 33.22 356.24 31.85 350.98 31.60 C 350.99 29.40 351.01 27.21 351.08 25.01 Z" />
</g>
<g id="#010101ff">
<path fill="#010101" opacity="1.00" d=" M 8.41 35.58 C 12.53 33.66 18.40 36.06 18.87 40.87 C 19.13 46.93 19.12 53.03 18.87 59.09 C 18.34 64.99 9.96 67.02 6.19 62.86 C 4.05 60.85 4.26 57.71 4.22 55.03 C 4.31 50.43 4.07 45.83 4.35 41.24 C 4.49 38.77 6.16 36.54 8.41 35.58 M 9.27 39.13 C 7.29 40.42 7.87 43.05 7.71 45.04 C 7.83 49.65 7.49 54.28 7.93 58.87 C 8.58 62.45 14.62 62.47 15.32 58.88 C 15.72 53.27 15.54 47.62 15.43 42.00 C 15.60 38.92 11.52 37.40 9.27 39.13 Z" />
<path fill="#010101" opacity="1.00" d=" M 76.81 35.00 C 81.71 35.00 86.60 35.00 91.50 35.00 C 91.50 35.88 91.49 37.63 91.49 38.51 C 89.67 38.50 87.85 38.49 86.03 38.47 C 85.97 47.31 86.01 56.16 86.00 65.00 C 85.13 65.00 83.38 65.00 82.50 65.00 C 82.49 56.17 82.52 47.35 82.48 38.53 C 80.56 38.51 78.64 38.49 76.72 38.48 C 76.74 37.61 76.79 35.87 76.81 35.00 Z" />
<path fill="#010101" opacity="1.00" d=" M 130.00 35.00 C 130.87 35.00 132.62 35.00 133.49 35.00 C 133.50 37.42 133.50 39.83 133.50 42.25 C 135.50 42.25 137.50 42.25 139.50 42.25 C 139.50 43.42 139.50 44.58 139.50 45.75 C 137.50 45.75 135.51 45.75 133.51 45.75 C 133.59 50.14 133.19 54.56 133.72 58.92 C 134.18 61.62 137.52 61.33 139.52 61.85 C 139.50 62.71 139.48 64.42 139.46 65.28 C 135.96 65.15 131.64 64.25 130.46 60.40 C 129.46 55.61 130.20 50.64 130.01 45.77 C 128.84 45.75 127.68 45.73 126.52 45.71 C 126.52 44.57 126.52 43.43 126.52 42.29 C 127.68 42.27 128.84 42.25 130.00 42.23 C 130.00 39.82 130.00 37.41 130.00 35.00 Z" />
<path fill="#010101" opacity="1.00" d=" M 142.46 35.09 C 143.63 35.05 144.81 35.02 145.99 34.98 C 145.97 36.22 145.96 37.46 145.94 38.70 C 144.82 38.71 143.71 38.72 142.60 38.73 C 142.55 37.52 142.50 36.30 142.46 35.09 Z" />
<path fill="#010101" opacity="1.00" d=" M 187.48 41.96 C 187.25 35.66 195.82 32.68 200.05 36.88 C 202.45 38.85 202.17 42.17 202.43 44.96 C 201.58 44.97 199.87 45.00 199.02 45.01 C 198.57 42.95 199.19 40.03 196.89 38.92 C 193.79 36.96 189.51 40.52 191.31 43.89 C 194.30 49.09 202.47 51.06 202.29 58.01 C 202.55 64.21 194.11 67.31 189.84 63.24 C 187.35 61.18 187.57 57.71 187.31 54.81 C 188.17 54.79 189.89 54.77 190.75 54.76 C 191.06 57.19 190.71 61.10 194.02 61.48 C 196.99 62.32 199.76 59.12 198.59 56.29 C 195.70 50.92 187.43 48.93 187.48 41.96 Z" />
<path fill="#010101" opacity="1.00" d=" M 241.00 35.00 C 241.87 35.00 243.62 35.00 244.49 35.00 C 244.49 37.42 244.50 39.83 244.50 42.25 C 246.50 42.25 248.50 42.25 250.50 42.25 C 250.50 43.42 250.50 44.58 250.50 45.75 C 248.50 45.75 246.50 45.75 244.51 45.75 C 244.59 50.13 244.19 54.54 244.72 58.91 C 245.16 61.62 248.51 61.32 250.52 61.85 C 250.50 62.71 250.48 64.42 250.46 65.28 C 246.97 65.13 242.69 64.28 241.48 60.45 C 240.45 55.65 241.20 50.65 241.01 45.77 C 239.84 45.75 238.68 45.73 237.52 45.71 C 237.52 44.57 237.52 43.43 237.52 42.29 C 238.68 42.27 239.84 42.25 241.00 42.23 C 241.00 39.82 241.00 37.41 241.00 35.00 Z" />
<path fill="#010101" opacity="1.00" d=" M 22.04 48.95 C 21.82 45.57 24.66 42.41 28.04 42.25 C 31.72 41.87 35.18 45.18 34.96 48.88 C 34.92 52.92 35.62 57.19 34.26 61.06 C 32.85 64.62 28.77 65.07 25.46 65.27 C 25.49 67.44 25.50 69.60 25.51 71.76 C 24.34 71.74 23.18 71.73 22.02 71.71 C 22.04 64.13 21.90 56.54 22.04 48.95 M 25.68 48.00 C 25.21 52.60 25.56 57.24 25.58 61.86 C 27.55 61.33 30.87 61.59 31.27 58.91 C 31.71 55.31 31.70 51.63 31.31 48.03 C 30.89 45.01 26.20 45.02 25.68 48.00 Z" />
<path fill="#010101" opacity="1.00" d=" M 38.27 46.98 C 39.24 42.69 45.05 40.73 48.43 43.56 C 51.92 46.08 50.82 50.82 51.06 54.50 C 47.81 54.49 44.56 54.49 41.31 54.53 C 41.70 56.89 40.77 60.87 44.03 61.45 C 46.71 62.28 47.25 58.80 47.94 57.00 C 48.79 57.01 50.49 57.05 51.34 57.06 C 50.82 59.57 50.51 62.63 47.99 63.99 C 44.47 66.48 38.88 64.22 38.21 59.94 C 37.82 55.64 37.77 51.27 38.27 46.98 M 41.15 50.92 C 43.39 50.97 45.62 50.97 47.86 50.92 C 47.27 49.18 47.58 45.81 45.03 45.78 C 41.94 45.10 41.44 48.76 41.15 50.92 Z" />
<path fill="#010101" opacity="1.00" d=" M 54.12 47.91 C 54.31 44.93 57.03 42.46 59.96 42.25 C 63.26 41.86 66.81 44.47 66.93 47.89 C 67.17 53.59 66.91 59.30 67.00 65.00 C 66.13 65.00 64.40 64.99 63.54 64.99 C 63.31 59.00 63.89 52.97 63.21 47.00 C 61.63 44.86 57.87 45.57 57.62 48.35 C 57.26 53.89 57.61 59.46 57.50 65.02 C 56.63 65.00 54.89 64.97 54.02 64.96 C 54.09 59.28 53.78 53.59 54.12 47.91 Z" />
<path fill="#010101" opacity="1.00" d=" M 96.77 43.81 C 99.86 40.91 105.43 42.24 106.98 46.16 C 107.80 48.85 107.44 51.72 107.55 54.49 C 104.32 54.50 101.09 54.50 97.86 54.50 C 98.19 56.84 97.31 60.14 99.98 61.38 C 102.89 62.56 103.89 59.05 104.47 56.97 C 105.32 57.02 107.02 57.11 107.87 57.15 C 107.25 59.55 107.04 62.47 104.68 63.87 C 101.44 66.28 96.28 64.68 94.95 60.88 C 94.21 57.99 94.52 54.96 94.45 52.01 C 94.50 49.17 94.25 45.75 96.77 43.81 M 99.30 46.30 C 97.79 47.29 98.18 49.45 97.67 50.97 C 99.89 50.99 102.11 50.99 104.34 50.97 C 104.03 49.50 103.82 48.01 103.34 46.58 C 102.09 45.78 100.56 45.11 99.30 46.30 Z" />
<path fill="#010101" opacity="1.00" d=" M 110.90 49.98 C 109.44 45.22 114.87 40.72 119.34 42.60 C 122.44 43.51 123.35 46.80 123.90 49.59 C 122.81 49.67 121.71 49.75 120.63 49.83 C 119.85 48.46 119.75 46.32 117.94 45.88 C 115.64 44.82 112.87 48.15 114.83 50.11 C 117.85 52.57 123.38 53.19 123.51 58.03 C 124.39 63.07 118.17 66.76 113.96 64.26 C 111.17 63.01 110.69 59.82 110.18 57.16 C 111.01 57.11 112.66 57.02 113.49 56.97 C 113.98 59.03 115.20 62.53 117.98 61.34 C 119.93 61.05 120.30 58.83 119.81 57.23 C 117.07 54.54 111.86 54.26 110.90 49.98 Z" />
<path fill="#010101" opacity="1.00" d=" M 142.51 42.22 C 143.38 42.24 145.12 42.28 145.99 42.30 C 146.00 49.86 146.01 57.41 145.98 64.96 C 145.11 64.97 143.37 65.00 142.50 65.01 C 142.50 57.42 142.49 49.82 142.51 42.22 Z" />
<path fill="#010101" opacity="1.00" d=" M 149.12 47.92 C 149.31 44.91 152.06 42.42 155.02 42.25 C 158.31 41.89 161.84 44.52 161.93 47.93 C 162.17 53.62 161.92 59.33 162.00 65.02 C 160.84 65.00 159.68 64.98 158.52 64.96 C 158.33 58.98 158.89 52.96 158.22 47.01 C 156.62 44.86 152.86 45.58 152.62 48.36 C 152.26 53.90 152.61 59.46 152.50 65.01 C 151.63 65.00 149.89 64.97 149.02 64.96 C 149.09 59.28 148.78 53.59 149.12 47.92 Z" />
<path fill="#010101" opacity="1.00" d=" M 165.19 47.93 C 165.79 43.33 171.77 40.44 175.52 43.48 C 178.92 45.84 177.82 50.48 178.03 54.01 C 177.69 58.68 178.81 63.64 177.17 68.12 C 175.26 72.05 170.49 71.85 166.79 71.84 C 166.78 70.69 166.77 69.54 166.77 68.39 C 169.86 68.43 173.21 68.36 175.17 65.55 C 171.55 65.05 166.74 64.58 165.47 60.42 C 164.60 56.34 164.89 52.06 165.19 47.93 M 168.73 48.11 C 168.29 51.68 168.26 55.34 168.78 58.90 C 169.35 61.40 172.52 61.07 174.44 61.60 C 174.40 56.77 174.87 51.89 174.20 47.09 C 172.89 44.71 169.31 45.68 168.73 48.11 Z" />
<path fill="#010101" opacity="1.00" d=" M 205.27 42.29 C 206.43 42.27 207.58 42.25 208.75 42.23 C 208.90 47.81 208.40 53.42 208.98 58.98 C 209.80 61.41 212.70 61.02 214.70 61.57 C 214.80 55.13 214.73 48.69 214.75 42.24 C 215.62 42.25 217.35 42.26 218.22 42.26 C 218.24 49.53 218.31 56.80 218.24 64.07 C 218.41 66.97 216.91 69.97 214.17 71.14 C 211.90 71.95 209.43 71.70 207.07 71.84 C 207.04 70.70 207.01 69.56 206.98 68.43 C 210.10 68.42 213.50 68.33 215.43 65.49 C 211.73 65.11 206.91 64.57 205.68 60.31 C 204.69 54.38 205.49 48.29 205.27 42.29 Z" />
<path fill="#010101" opacity="1.00" d=" M 221.65 49.98 C 220.16 45.13 225.80 40.56 230.29 42.70 C 233.31 43.64 234.10 46.90 234.68 49.61 C 233.88 49.65 232.26 49.73 231.45 49.77 C 230.97 48.55 230.37 47.40 229.65 46.32 C 227.48 44.43 223.77 47.12 225.22 49.79 C 228.19 52.53 234.02 53.01 234.25 57.96 C 235.18 62.97 229.02 66.76 224.79 64.30 C 222.00 63.07 221.43 59.89 220.85 57.23 C 221.97 57.14 223.10 57.05 224.23 56.96 C 224.88 58.84 225.43 61.64 227.99 61.61 C 230.33 61.46 231.60 58.72 230.23 56.87 C 227.42 54.55 222.57 54.08 221.65 49.98 Z" />
<path fill="#010101" opacity="1.00" d=" M 255.84 43.75 C 258.93 40.94 264.40 42.26 265.95 46.11 C 266.81 48.81 266.43 51.70 266.55 54.49 C 263.31 54.50 260.06 54.50 256.82 54.50 C 257.21 56.82 256.32 60.10 258.94 61.36 C 261.86 62.59 262.90 59.07 263.47 56.97 C 264.32 57.02 266.01 57.11 266.86 57.15 C 266.25 59.53 266.06 62.43 263.72 63.84 C 260.50 66.29 255.29 64.71 253.95 60.89 C 253.20 58.00 253.52 54.96 253.45 52.00 C 253.48 49.14 253.27 45.68 255.84 43.75 M 258.31 46.28 C 256.80 47.25 257.19 49.45 256.67 50.97 C 258.89 50.99 261.10 50.99 263.33 50.97 C 263.03 49.52 262.84 48.03 262.36 46.62 C 261.13 45.77 259.60 45.13 258.31 46.28 Z" />
<path fill="#010101" opacity="1.00" d=" M 269.30 47.97 C 269.21 45.23 271.37 42.60 274.12 42.29 C 275.73 42.26 277.28 42.78 278.84 43.12 C 282.15 41.72 287.01 42.00 288.13 46.10 C 289.00 52.34 288.29 58.70 288.47 64.98 C 287.60 64.99 285.87 65.00 285.00 65.01 C 284.86 59.01 285.29 53.00 284.81 47.02 C 283.73 44.85 280.46 45.52 280.63 48.03 C 280.26 53.67 280.60 59.33 280.51 64.99 C 279.42 64.99 278.33 65.00 277.25 65.01 C 277.04 59.06 277.73 53.04 276.90 47.14 C 276.41 44.68 272.68 45.66 272.83 47.89 C 272.57 53.59 272.83 59.31 272.75 65.02 C 271.59 65.00 270.43 64.98 269.27 64.96 C 269.30 59.30 269.12 53.63 269.30 47.97 Z" />
</g>
<g id="#ffffffff">
<path fill="#ffffff" opacity="1.00" d=" M 333.74 46.47 C 334.71 44.05 336.11 41.33 338.97 40.85 C 341.82 39.93 344.48 41.57 346.36 43.58 C 350.00 42.56 353.36 44.14 356.14 46.37 C 360.89 46.98 366.90 50.19 366.20 55.78 C 363.51 60.62 358.48 63.38 353.90 66.14 C 353.88 69.96 353.89 73.79 353.93 77.62 C 357.65 76.34 361.50 75.14 364.67 72.72 C 369.51 69.16 372.68 63.73 374.08 57.94 C 375.15 59.17 376.17 60.45 377.13 61.78 C 379.24 62.02 381.65 62.09 383.23 63.74 C 386.10 66.19 385.19 71.25 382.07 73.05 C 380.37 74.16 378.28 73.99 376.36 74.15 C 373.17 76.54 368.97 76.47 365.42 74.98 C 361.44 82.03 351.23 82.74 345.24 77.90 C 339.06 79.68 331.68 79.77 326.50 75.44 C 321.26 77.02 313.88 76.30 311.46 70.63 C 309.68 66.67 313.02 63.01 316.35 61.34 C 316.19 57.89 318.69 54.85 322.13 54.41 C 322.74 54.27 323.96 53.97 324.57 53.82 C 325.89 51.54 327.32 49.24 329.47 47.64 C 330.88 47.19 332.30 46.80 333.74 46.47 Z" />
</g>
</svg>
